<mxfile host="Electron" modified="2024-01-18T09:42:05.096Z" agent="Mozilla/5.0 (Windows NT 10.0; Win64; x64) AppleWebKit/537.36 (KHTML, like Gecko) draw.io/22.1.11 Chrome/114.0.5735.289 Electron/25.9.8 Safari/537.36" etag="weMrCpDHn2EJ2BZd7Ii5" version="22.1.11" type="device">
  <diagram name="第 1 页" id="iVoGqLKDGXeGUogeqgG5">
    <mxGraphModel dx="1434" dy="844" grid="1" gridSize="10" guides="1" tooltips="1" connect="1" arrows="1" fold="1" page="1" pageScale="1" pageWidth="827" pageHeight="1169" math="0" shadow="0">
      <root>
        <mxCell id="0" />
        <mxCell id="1" parent="0" />
        <mxCell id="oet4cubgD4DTGdrtKzFR-1" style="edgeStyle=none;rounded=0;orthogonalLoop=1;jettySize=auto;html=1;endArrow=block;endFill=0;" edge="1" parent="1" source="oet4cubgD4DTGdrtKzFR-2" target="oet4cubgD4DTGdrtKzFR-25">
          <mxGeometry relative="1" as="geometry" />
        </mxCell>
        <mxCell id="oet4cubgD4DTGdrtKzFR-2" value="ISphere" style="swimlane;fontStyle=1;align=center;verticalAlign=top;childLayout=stackLayout;horizontal=1;startSize=26;horizontalStack=0;resizeParent=1;resizeParentMax=0;resizeLast=0;collapsible=1;marginBottom=0;whiteSpace=wrap;html=1;" vertex="1" parent="1">
          <mxGeometry x="240" y="240" width="160" height="60" as="geometry" />
        </mxCell>
        <mxCell id="oet4cubgD4DTGdrtKzFR-3" value="" style="line;strokeWidth=1;fillColor=none;align=left;verticalAlign=middle;spacingTop=-1;spacingLeft=3;spacingRight=3;rotatable=0;labelPosition=right;points=[];portConstraint=eastwest;strokeColor=inherit;" vertex="1" parent="oet4cubgD4DTGdrtKzFR-2">
          <mxGeometry y="26" width="160" height="8" as="geometry" />
        </mxCell>
        <mxCell id="oet4cubgD4DTGdrtKzFR-4" value="+Draw()" style="text;strokeColor=none;fillColor=none;align=left;verticalAlign=top;spacingLeft=4;spacingRight=4;overflow=hidden;rotatable=0;points=[[0,0.5],[1,0.5]];portConstraint=eastwest;whiteSpace=wrap;html=1;" vertex="1" parent="oet4cubgD4DTGdrtKzFR-2">
          <mxGeometry y="34" width="160" height="26" as="geometry" />
        </mxCell>
        <mxCell id="oet4cubgD4DTGdrtKzFR-5" style="edgeStyle=none;rounded=0;orthogonalLoop=1;jettySize=auto;html=1;endArrow=diamondThin;endFill=0;" edge="1" parent="1" source="oet4cubgD4DTGdrtKzFR-7" target="oet4cubgD4DTGdrtKzFR-16">
          <mxGeometry relative="1" as="geometry" />
        </mxCell>
        <mxCell id="oet4cubgD4DTGdrtKzFR-6" style="edgeStyle=none;rounded=0;orthogonalLoop=1;jettySize=auto;html=1;endArrow=diamondThin;endFill=0;" edge="1" parent="1" source="oet4cubgD4DTGdrtKzFR-7" target="oet4cubgD4DTGdrtKzFR-33">
          <mxGeometry relative="1" as="geometry" />
        </mxCell>
        <mxCell id="oet4cubgD4DTGdrtKzFR-7" value="OpenGL" style="swimlane;fontStyle=1;align=center;verticalAlign=top;childLayout=stackLayout;horizontal=1;startSize=26;horizontalStack=0;resizeParent=1;resizeParentMax=0;resizeLast=0;collapsible=1;marginBottom=0;whiteSpace=wrap;html=1;" vertex="1" parent="1">
          <mxGeometry x="240" y="640" width="160" height="60" as="geometry" />
        </mxCell>
        <mxCell id="oet4cubgD4DTGdrtKzFR-8" value="" style="line;strokeWidth=1;fillColor=none;align=left;verticalAlign=middle;spacingTop=-1;spacingLeft=3;spacingRight=3;rotatable=0;labelPosition=right;points=[];portConstraint=eastwest;strokeColor=inherit;" vertex="1" parent="oet4cubgD4DTGdrtKzFR-7">
          <mxGeometry y="26" width="160" height="8" as="geometry" />
        </mxCell>
        <mxCell id="oet4cubgD4DTGdrtKzFR-9" value="+GLRender()" style="text;strokeColor=none;fillColor=none;align=left;verticalAlign=top;spacingLeft=4;spacingRight=4;overflow=hidden;rotatable=0;points=[[0,0.5],[1,0.5]];portConstraint=eastwest;whiteSpace=wrap;html=1;" vertex="1" parent="oet4cubgD4DTGdrtKzFR-7">
          <mxGeometry y="34" width="160" height="26" as="geometry" />
        </mxCell>
        <mxCell id="oet4cubgD4DTGdrtKzFR-10" style="edgeStyle=none;rounded=0;orthogonalLoop=1;jettySize=auto;html=1;endArrow=diamondThin;endFill=0;" edge="1" parent="1" source="oet4cubgD4DTGdrtKzFR-12" target="oet4cubgD4DTGdrtKzFR-21">
          <mxGeometry relative="1" as="geometry" />
        </mxCell>
        <mxCell id="oet4cubgD4DTGdrtKzFR-11" style="edgeStyle=none;rounded=0;orthogonalLoop=1;jettySize=auto;html=1;endArrow=diamondThin;endFill=0;" edge="1" parent="1" source="oet4cubgD4DTGdrtKzFR-12" target="oet4cubgD4DTGdrtKzFR-38">
          <mxGeometry relative="1" as="geometry" />
        </mxCell>
        <mxCell id="oet4cubgD4DTGdrtKzFR-12" value="DirectX" style="swimlane;fontStyle=1;align=center;verticalAlign=top;childLayout=stackLayout;horizontal=1;startSize=26;horizontalStack=0;resizeParent=1;resizeParentMax=0;resizeLast=0;collapsible=1;marginBottom=0;whiteSpace=wrap;html=1;" vertex="1" parent="1">
          <mxGeometry x="520" y="640" width="160" height="60" as="geometry" />
        </mxCell>
        <mxCell id="oet4cubgD4DTGdrtKzFR-13" value="" style="line;strokeWidth=1;fillColor=none;align=left;verticalAlign=middle;spacingTop=-1;spacingLeft=3;spacingRight=3;rotatable=0;labelPosition=right;points=[];portConstraint=eastwest;strokeColor=inherit;" vertex="1" parent="oet4cubgD4DTGdrtKzFR-12">
          <mxGeometry y="26" width="160" height="8" as="geometry" />
        </mxCell>
        <mxCell id="oet4cubgD4DTGdrtKzFR-14" value="+DXRender()" style="text;strokeColor=none;fillColor=none;align=left;verticalAlign=top;spacingLeft=4;spacingRight=4;overflow=hidden;rotatable=0;points=[[0,0.5],[1,0.5]];portConstraint=eastwest;whiteSpace=wrap;html=1;" vertex="1" parent="oet4cubgD4DTGdrtKzFR-12">
          <mxGeometry y="34" width="160" height="26" as="geometry" />
        </mxCell>
        <mxCell id="oet4cubgD4DTGdrtKzFR-15" style="edgeStyle=none;rounded=0;orthogonalLoop=1;jettySize=auto;html=1;endArrow=block;endFill=0;" edge="1" parent="1" source="oet4cubgD4DTGdrtKzFR-16" target="oet4cubgD4DTGdrtKzFR-2">
          <mxGeometry relative="1" as="geometry" />
        </mxCell>
        <mxCell id="oet4cubgD4DTGdrtKzFR-16" value="SphereGL" style="swimlane;fontStyle=1;align=center;verticalAlign=top;childLayout=stackLayout;horizontal=1;startSize=26;horizontalStack=0;resizeParent=1;resizeParentMax=0;resizeLast=0;collapsible=1;marginBottom=0;whiteSpace=wrap;html=1;" vertex="1" parent="1">
          <mxGeometry x="40" y="360" width="160" height="86" as="geometry" />
        </mxCell>
        <mxCell id="oet4cubgD4DTGdrtKzFR-17" value="-openGL" style="text;strokeColor=none;fillColor=none;align=left;verticalAlign=top;spacingLeft=4;spacingRight=4;overflow=hidden;rotatable=0;points=[[0,0.5],[1,0.5]];portConstraint=eastwest;whiteSpace=wrap;html=1;" vertex="1" parent="oet4cubgD4DTGdrtKzFR-16">
          <mxGeometry y="26" width="160" height="26" as="geometry" />
        </mxCell>
        <mxCell id="oet4cubgD4DTGdrtKzFR-18" value="" style="line;strokeWidth=1;fillColor=none;align=left;verticalAlign=middle;spacingTop=-1;spacingLeft=3;spacingRight=3;rotatable=0;labelPosition=right;points=[];portConstraint=eastwest;strokeColor=inherit;" vertex="1" parent="oet4cubgD4DTGdrtKzFR-16">
          <mxGeometry y="52" width="160" height="8" as="geometry" />
        </mxCell>
        <mxCell id="oet4cubgD4DTGdrtKzFR-19" value="+Draw()" style="text;strokeColor=none;fillColor=none;align=left;verticalAlign=top;spacingLeft=4;spacingRight=4;overflow=hidden;rotatable=0;points=[[0,0.5],[1,0.5]];portConstraint=eastwest;whiteSpace=wrap;html=1;" vertex="1" parent="oet4cubgD4DTGdrtKzFR-16">
          <mxGeometry y="60" width="160" height="26" as="geometry" />
        </mxCell>
        <mxCell id="oet4cubgD4DTGdrtKzFR-20" style="edgeStyle=none;rounded=0;orthogonalLoop=1;jettySize=auto;html=1;endArrow=block;endFill=0;" edge="1" parent="1" source="oet4cubgD4DTGdrtKzFR-21" target="oet4cubgD4DTGdrtKzFR-2">
          <mxGeometry relative="1" as="geometry" />
        </mxCell>
        <mxCell id="oet4cubgD4DTGdrtKzFR-21" value="SphereDX" style="swimlane;fontStyle=1;align=center;verticalAlign=top;childLayout=stackLayout;horizontal=1;startSize=26;horizontalStack=0;resizeParent=1;resizeParentMax=0;resizeLast=0;collapsible=1;marginBottom=0;whiteSpace=wrap;html=1;" vertex="1" parent="1">
          <mxGeometry x="240" y="360" width="160" height="86" as="geometry" />
        </mxCell>
        <mxCell id="oet4cubgD4DTGdrtKzFR-22" value="-directX" style="text;strokeColor=none;fillColor=none;align=left;verticalAlign=top;spacingLeft=4;spacingRight=4;overflow=hidden;rotatable=0;points=[[0,0.5],[1,0.5]];portConstraint=eastwest;whiteSpace=wrap;html=1;" vertex="1" parent="oet4cubgD4DTGdrtKzFR-21">
          <mxGeometry y="26" width="160" height="26" as="geometry" />
        </mxCell>
        <mxCell id="oet4cubgD4DTGdrtKzFR-23" value="" style="line;strokeWidth=1;fillColor=none;align=left;verticalAlign=middle;spacingTop=-1;spacingLeft=3;spacingRight=3;rotatable=0;labelPosition=right;points=[];portConstraint=eastwest;strokeColor=inherit;" vertex="1" parent="oet4cubgD4DTGdrtKzFR-21">
          <mxGeometry y="52" width="160" height="8" as="geometry" />
        </mxCell>
        <mxCell id="oet4cubgD4DTGdrtKzFR-24" value="+Draw()" style="text;strokeColor=none;fillColor=none;align=left;verticalAlign=top;spacingLeft=4;spacingRight=4;overflow=hidden;rotatable=0;points=[[0,0.5],[1,0.5]];portConstraint=eastwest;whiteSpace=wrap;html=1;" vertex="1" parent="oet4cubgD4DTGdrtKzFR-21">
          <mxGeometry y="60" width="160" height="26" as="geometry" />
        </mxCell>
        <mxCell id="oet4cubgD4DTGdrtKzFR-25" value="IShape" style="swimlane;fontStyle=1;align=center;verticalAlign=top;childLayout=stackLayout;horizontal=1;startSize=26;horizontalStack=0;resizeParent=1;resizeParentMax=0;resizeLast=0;collapsible=1;marginBottom=0;whiteSpace=wrap;html=1;" vertex="1" parent="1">
          <mxGeometry x="520" y="80" width="160" height="60" as="geometry" />
        </mxCell>
        <mxCell id="oet4cubgD4DTGdrtKzFR-26" value="" style="line;strokeWidth=1;fillColor=none;align=left;verticalAlign=middle;spacingTop=-1;spacingLeft=3;spacingRight=3;rotatable=0;labelPosition=right;points=[];portConstraint=eastwest;strokeColor=inherit;" vertex="1" parent="oet4cubgD4DTGdrtKzFR-25">
          <mxGeometry y="26" width="160" height="8" as="geometry" />
        </mxCell>
        <mxCell id="oet4cubgD4DTGdrtKzFR-27" value="+Draw()" style="text;strokeColor=none;fillColor=none;align=left;verticalAlign=top;spacingLeft=4;spacingRight=4;overflow=hidden;rotatable=0;points=[[0,0.5],[1,0.5]];portConstraint=eastwest;whiteSpace=wrap;html=1;" vertex="1" parent="oet4cubgD4DTGdrtKzFR-25">
          <mxGeometry y="34" width="160" height="26" as="geometry" />
        </mxCell>
        <mxCell id="oet4cubgD4DTGdrtKzFR-28" style="edgeStyle=none;rounded=0;orthogonalLoop=1;jettySize=auto;html=1;endArrow=block;endFill=0;" edge="1" parent="1" source="oet4cubgD4DTGdrtKzFR-29" target="oet4cubgD4DTGdrtKzFR-25">
          <mxGeometry relative="1" as="geometry" />
        </mxCell>
        <mxCell id="oet4cubgD4DTGdrtKzFR-29" value="ICube" style="swimlane;fontStyle=1;align=center;verticalAlign=top;childLayout=stackLayout;horizontal=1;startSize=26;horizontalStack=0;resizeParent=1;resizeParentMax=0;resizeLast=0;collapsible=1;marginBottom=0;whiteSpace=wrap;html=1;" vertex="1" parent="1">
          <mxGeometry x="840" y="240" width="160" height="60" as="geometry" />
        </mxCell>
        <mxCell id="oet4cubgD4DTGdrtKzFR-30" value="" style="line;strokeWidth=1;fillColor=none;align=left;verticalAlign=middle;spacingTop=-1;spacingLeft=3;spacingRight=3;rotatable=0;labelPosition=right;points=[];portConstraint=eastwest;strokeColor=inherit;" vertex="1" parent="oet4cubgD4DTGdrtKzFR-29">
          <mxGeometry y="26" width="160" height="8" as="geometry" />
        </mxCell>
        <mxCell id="oet4cubgD4DTGdrtKzFR-31" value="+Draw()" style="text;strokeColor=none;fillColor=none;align=left;verticalAlign=top;spacingLeft=4;spacingRight=4;overflow=hidden;rotatable=0;points=[[0,0.5],[1,0.5]];portConstraint=eastwest;whiteSpace=wrap;html=1;" vertex="1" parent="oet4cubgD4DTGdrtKzFR-29">
          <mxGeometry y="34" width="160" height="26" as="geometry" />
        </mxCell>
        <mxCell id="oet4cubgD4DTGdrtKzFR-32" style="edgeStyle=none;rounded=0;orthogonalLoop=1;jettySize=auto;html=1;endArrow=block;endFill=0;" edge="1" parent="1" source="oet4cubgD4DTGdrtKzFR-33" target="oet4cubgD4DTGdrtKzFR-29">
          <mxGeometry relative="1" as="geometry" />
        </mxCell>
        <mxCell id="oet4cubgD4DTGdrtKzFR-33" value="CubeGL" style="swimlane;fontStyle=1;align=center;verticalAlign=top;childLayout=stackLayout;horizontal=1;startSize=26;horizontalStack=0;resizeParent=1;resizeParentMax=0;resizeLast=0;collapsible=1;marginBottom=0;whiteSpace=wrap;html=1;" vertex="1" parent="1">
          <mxGeometry x="640" y="360" width="160" height="86" as="geometry" />
        </mxCell>
        <mxCell id="oet4cubgD4DTGdrtKzFR-34" value="-openGL" style="text;strokeColor=none;fillColor=none;align=left;verticalAlign=top;spacingLeft=4;spacingRight=4;overflow=hidden;rotatable=0;points=[[0,0.5],[1,0.5]];portConstraint=eastwest;whiteSpace=wrap;html=1;" vertex="1" parent="oet4cubgD4DTGdrtKzFR-33">
          <mxGeometry y="26" width="160" height="26" as="geometry" />
        </mxCell>
        <mxCell id="oet4cubgD4DTGdrtKzFR-35" value="" style="line;strokeWidth=1;fillColor=none;align=left;verticalAlign=middle;spacingTop=-1;spacingLeft=3;spacingRight=3;rotatable=0;labelPosition=right;points=[];portConstraint=eastwest;strokeColor=inherit;" vertex="1" parent="oet4cubgD4DTGdrtKzFR-33">
          <mxGeometry y="52" width="160" height="8" as="geometry" />
        </mxCell>
        <mxCell id="oet4cubgD4DTGdrtKzFR-36" value="+Draw()" style="text;strokeColor=none;fillColor=none;align=left;verticalAlign=top;spacingLeft=4;spacingRight=4;overflow=hidden;rotatable=0;points=[[0,0.5],[1,0.5]];portConstraint=eastwest;whiteSpace=wrap;html=1;" vertex="1" parent="oet4cubgD4DTGdrtKzFR-33">
          <mxGeometry y="60" width="160" height="26" as="geometry" />
        </mxCell>
        <mxCell id="oet4cubgD4DTGdrtKzFR-37" style="edgeStyle=none;rounded=0;orthogonalLoop=1;jettySize=auto;html=1;endArrow=block;endFill=0;" edge="1" parent="1" source="oet4cubgD4DTGdrtKzFR-38" target="oet4cubgD4DTGdrtKzFR-29">
          <mxGeometry relative="1" as="geometry" />
        </mxCell>
        <mxCell id="oet4cubgD4DTGdrtKzFR-38" value="CubeDX" style="swimlane;fontStyle=1;align=center;verticalAlign=top;childLayout=stackLayout;horizontal=1;startSize=26;horizontalStack=0;resizeParent=1;resizeParentMax=0;resizeLast=0;collapsible=1;marginBottom=0;whiteSpace=wrap;html=1;" vertex="1" parent="1">
          <mxGeometry x="840" y="360" width="160" height="86" as="geometry" />
        </mxCell>
        <mxCell id="oet4cubgD4DTGdrtKzFR-39" value="-directX" style="text;strokeColor=none;fillColor=none;align=left;verticalAlign=top;spacingLeft=4;spacingRight=4;overflow=hidden;rotatable=0;points=[[0,0.5],[1,0.5]];portConstraint=eastwest;whiteSpace=wrap;html=1;" vertex="1" parent="oet4cubgD4DTGdrtKzFR-38">
          <mxGeometry y="26" width="160" height="26" as="geometry" />
        </mxCell>
        <mxCell id="oet4cubgD4DTGdrtKzFR-40" value="" style="line;strokeWidth=1;fillColor=none;align=left;verticalAlign=middle;spacingTop=-1;spacingLeft=3;spacingRight=3;rotatable=0;labelPosition=right;points=[];portConstraint=eastwest;strokeColor=inherit;" vertex="1" parent="oet4cubgD4DTGdrtKzFR-38">
          <mxGeometry y="52" width="160" height="8" as="geometry" />
        </mxCell>
        <mxCell id="oet4cubgD4DTGdrtKzFR-41" value="+Draw()" style="text;strokeColor=none;fillColor=none;align=left;verticalAlign=top;spacingLeft=4;spacingRight=4;overflow=hidden;rotatable=0;points=[[0,0.5],[1,0.5]];portConstraint=eastwest;whiteSpace=wrap;html=1;" vertex="1" parent="oet4cubgD4DTGdrtKzFR-38">
          <mxGeometry y="60" width="160" height="26" as="geometry" />
        </mxCell>
        <mxCell id="oet4cubgD4DTGdrtKzFR-47" style="edgeStyle=none;rounded=0;orthogonalLoop=1;jettySize=auto;html=1;endArrow=block;endFill=0;" edge="1" parent="1" source="oet4cubgD4DTGdrtKzFR-42" target="oet4cubgD4DTGdrtKzFR-29">
          <mxGeometry relative="1" as="geometry" />
        </mxCell>
        <mxCell id="oet4cubgD4DTGdrtKzFR-42" value="CubeGLES" style="swimlane;fontStyle=1;align=center;verticalAlign=top;childLayout=stackLayout;horizontal=1;startSize=26;horizontalStack=0;resizeParent=1;resizeParentMax=0;resizeLast=0;collapsible=1;marginBottom=0;whiteSpace=wrap;html=1;" vertex="1" parent="1">
          <mxGeometry x="1040" y="360" width="160" height="86" as="geometry" />
        </mxCell>
        <mxCell id="oet4cubgD4DTGdrtKzFR-43" value="-openGLES" style="text;strokeColor=none;fillColor=none;align=left;verticalAlign=top;spacingLeft=4;spacingRight=4;overflow=hidden;rotatable=0;points=[[0,0.5],[1,0.5]];portConstraint=eastwest;whiteSpace=wrap;html=1;" vertex="1" parent="oet4cubgD4DTGdrtKzFR-42">
          <mxGeometry y="26" width="160" height="26" as="geometry" />
        </mxCell>
        <mxCell id="oet4cubgD4DTGdrtKzFR-44" value="" style="line;strokeWidth=1;fillColor=none;align=left;verticalAlign=middle;spacingTop=-1;spacingLeft=3;spacingRight=3;rotatable=0;labelPosition=right;points=[];portConstraint=eastwest;strokeColor=inherit;" vertex="1" parent="oet4cubgD4DTGdrtKzFR-42">
          <mxGeometry y="52" width="160" height="8" as="geometry" />
        </mxCell>
        <mxCell id="oet4cubgD4DTGdrtKzFR-45" value="+Draw()" style="text;strokeColor=none;fillColor=none;align=left;verticalAlign=top;spacingLeft=4;spacingRight=4;overflow=hidden;rotatable=0;points=[[0,0.5],[1,0.5]];portConstraint=eastwest;whiteSpace=wrap;html=1;" vertex="1" parent="oet4cubgD4DTGdrtKzFR-42">
          <mxGeometry y="60" width="160" height="26" as="geometry" />
        </mxCell>
        <mxCell id="oet4cubgD4DTGdrtKzFR-52" style="edgeStyle=none;rounded=0;orthogonalLoop=1;jettySize=auto;html=1;endArrow=block;endFill=0;" edge="1" parent="1" source="oet4cubgD4DTGdrtKzFR-48" target="oet4cubgD4DTGdrtKzFR-2">
          <mxGeometry relative="1" as="geometry" />
        </mxCell>
        <mxCell id="oet4cubgD4DTGdrtKzFR-48" value="CubeGLES" style="swimlane;fontStyle=1;align=center;verticalAlign=top;childLayout=stackLayout;horizontal=1;startSize=26;horizontalStack=0;resizeParent=1;resizeParentMax=0;resizeLast=0;collapsible=1;marginBottom=0;whiteSpace=wrap;html=1;" vertex="1" parent="1">
          <mxGeometry x="440" y="360" width="160" height="86" as="geometry" />
        </mxCell>
        <mxCell id="oet4cubgD4DTGdrtKzFR-49" value="-openGLES" style="text;strokeColor=none;fillColor=none;align=left;verticalAlign=top;spacingLeft=4;spacingRight=4;overflow=hidden;rotatable=0;points=[[0,0.5],[1,0.5]];portConstraint=eastwest;whiteSpace=wrap;html=1;" vertex="1" parent="oet4cubgD4DTGdrtKzFR-48">
          <mxGeometry y="26" width="160" height="26" as="geometry" />
        </mxCell>
        <mxCell id="oet4cubgD4DTGdrtKzFR-50" value="" style="line;strokeWidth=1;fillColor=none;align=left;verticalAlign=middle;spacingTop=-1;spacingLeft=3;spacingRight=3;rotatable=0;labelPosition=right;points=[];portConstraint=eastwest;strokeColor=inherit;" vertex="1" parent="oet4cubgD4DTGdrtKzFR-48">
          <mxGeometry y="52" width="160" height="8" as="geometry" />
        </mxCell>
        <mxCell id="oet4cubgD4DTGdrtKzFR-51" value="+Draw()" style="text;strokeColor=none;fillColor=none;align=left;verticalAlign=top;spacingLeft=4;spacingRight=4;overflow=hidden;rotatable=0;points=[[0,0.5],[1,0.5]];portConstraint=eastwest;whiteSpace=wrap;html=1;" vertex="1" parent="oet4cubgD4DTGdrtKzFR-48">
          <mxGeometry y="60" width="160" height="26" as="geometry" />
        </mxCell>
        <mxCell id="oet4cubgD4DTGdrtKzFR-74" style="edgeStyle=none;rounded=0;orthogonalLoop=1;jettySize=auto;html=1;endArrow=diamondThin;endFill=0;" edge="1" parent="1" source="oet4cubgD4DTGdrtKzFR-71" target="oet4cubgD4DTGdrtKzFR-48">
          <mxGeometry relative="1" as="geometry" />
        </mxCell>
        <mxCell id="oet4cubgD4DTGdrtKzFR-75" style="edgeStyle=none;rounded=0;orthogonalLoop=1;jettySize=auto;html=1;endArrow=diamondThin;endFill=0;" edge="1" parent="1" source="oet4cubgD4DTGdrtKzFR-71" target="oet4cubgD4DTGdrtKzFR-42">
          <mxGeometry relative="1" as="geometry" />
        </mxCell>
        <mxCell id="oet4cubgD4DTGdrtKzFR-71" value="OpenGLES" style="swimlane;fontStyle=1;align=center;verticalAlign=top;childLayout=stackLayout;horizontal=1;startSize=26;horizontalStack=0;resizeParent=1;resizeParentMax=0;resizeLast=0;collapsible=1;marginBottom=0;whiteSpace=wrap;html=1;" vertex="1" parent="1">
          <mxGeometry x="840" y="640" width="160" height="60" as="geometry" />
        </mxCell>
        <mxCell id="oet4cubgD4DTGdrtKzFR-72" value="" style="line;strokeWidth=1;fillColor=none;align=left;verticalAlign=middle;spacingTop=-1;spacingLeft=3;spacingRight=3;rotatable=0;labelPosition=right;points=[];portConstraint=eastwest;strokeColor=inherit;" vertex="1" parent="oet4cubgD4DTGdrtKzFR-71">
          <mxGeometry y="26" width="160" height="8" as="geometry" />
        </mxCell>
        <mxCell id="oet4cubgD4DTGdrtKzFR-73" value="+GLESRender()" style="text;strokeColor=none;fillColor=none;align=left;verticalAlign=top;spacingLeft=4;spacingRight=4;overflow=hidden;rotatable=0;points=[[0,0.5],[1,0.5]];portConstraint=eastwest;whiteSpace=wrap;html=1;" vertex="1" parent="oet4cubgD4DTGdrtKzFR-71">
          <mxGeometry y="34" width="160" height="26" as="geometry" />
        </mxCell>
      </root>
    </mxGraphModel>
  </diagram>
</mxfile>
